<svg width="1081" height="973" viewBox="0 0 1081 973" fill="none" xmlns="http://www.w3.org/2000/svg">
<path fill-rule="evenodd" clip-rule="evenodd" d="M454.262 19.2982C454.806 11.8236 455.894 4.75661 456.982 3.12577V2.98987C458.07 1.35903 460.247 0 462.015 0C463.647 0 466.096 1.08722 467.456 2.44626C469.224 4.07709 469.904 6.79516 469.768 12.2313C469.768 16.3084 470.992 24.8703 472.625 31.2577C474.121 37.6452 476.977 45.7994 478.882 49.6046C480.786 53.274 483.778 58.5742 485.547 61.1564C487.315 63.7386 492.892 69.0388 497.924 72.8441C502.957 76.6494 509.35 80.8624 511.934 82.2214C514.519 83.5804 524.584 86.1626 552.06 91.7346L552.468 96.4912C552.604 99.0734 552.06 102.063 551.108 103.015C550.156 103.83 545.395 105.053 540.499 105.461C535.602 105.869 527.985 107.499 523.496 108.994C519.007 110.489 511.39 113.615 506.63 116.061C500.781 118.915 495.476 122.856 490.579 128.428C486.499 132.913 481.194 140.252 478.882 144.737C476.569 149.222 473.849 156.289 472.761 160.366C471.672 164.443 470.448 173.276 469.904 179.8C469.36 188.226 468.544 192.031 467.048 192.982C465.96 193.662 463.647 194.341 461.879 194.341C460.247 194.341 458.07 192.982 456.982 191.216C455.894 189.585 454.806 182.518 454.262 175.315C453.854 167.569 452.494 159.686 450.861 155.609C449.501 151.804 446.509 145.552 444.332 141.475C442.292 137.398 437.123 130.603 432.907 126.526C428.69 122.313 421.889 117.148 417.945 115.11C413.864 112.935 407.199 110.082 403.118 108.722C399.038 107.363 391.693 105.869 386.796 105.325C381.899 104.781 376.594 103.694 374.826 102.879C372.922 101.791 371.698 100.025 371.698 97.8502C371.698 95.9476 372.514 93.7732 373.466 92.8218C374.418 91.8705 377.411 90.7833 379.995 90.3756C382.579 89.832 389.652 88.4729 395.637 87.3857C401.758 86.1626 410.599 83.1727 416.04 80.4547C421.617 77.6007 428.69 72.4364 433.043 67.9516C437.259 63.7386 442.428 56.6716 444.877 51.6432C447.189 46.7507 450.045 40.4991 451.269 37.6452C452.494 34.9271 453.854 26.637 454.262 19.2982ZM642.242 129.787C642.922 119.187 643.874 112.528 645.098 111.169C646.05 109.81 648.499 108.858 650.539 108.858C652.443 108.722 654.756 109.538 655.708 110.489C656.524 111.441 657.476 117.148 657.884 123.128C658.156 129.108 659.108 139.437 660.06 146.232C661.013 153.027 663.189 163.356 664.957 169.335C666.725 175.315 671.214 186.323 675.159 193.798C678.967 201.273 682.776 208.611 683.728 210.106C684.68 211.737 688.081 216.222 691.481 220.163C694.881 224.104 703.043 231.443 709.844 236.607C716.645 241.636 726.302 247.751 731.607 250.198C736.776 252.644 744.529 255.906 748.609 257.265C752.69 258.76 759.763 260.934 764.252 262.021C768.74 263.108 778.534 264.739 786.015 265.555C793.496 266.506 800.977 268.001 802.609 268.816C804.786 270.039 805.738 271.806 805.738 274.66C805.738 277.65 804.922 279.145 802.609 280.096C800.977 280.776 791.592 282.271 781.934 283.494C772.141 284.717 760.851 286.891 756.771 288.251C752.69 289.61 746.569 291.92 743.169 293.415C739.768 294.774 733.375 297.764 728.887 299.938C724.398 301.977 717.053 306.597 712.564 309.995C708.075 313.393 701.002 319.508 696.922 323.585C692.705 327.662 687.128 334.458 684.408 338.535C681.688 342.612 676.927 351.174 673.934 357.561C670.942 363.949 666.997 374.277 665.229 380.665C663.325 387.052 661.149 398.876 660.196 407.166C659.38 415.456 658.292 425.649 657.748 429.862C657.068 435.841 656.116 438.016 653.803 439.375C651.355 440.87 650.267 440.734 647.682 438.967C644.826 436.928 644.418 435.434 643.466 419.941C642.922 410.699 641.562 398.876 640.337 393.575C639.249 388.275 637.345 380.665 636.121 376.588C634.897 372.51 632.448 365.443 630.544 360.959C628.776 356.474 623.335 346.961 618.574 339.894C613.677 332.419 606.468 323.857 601.436 319.508C596.675 315.295 590.69 310.267 588.106 308.364C585.521 306.326 578.992 302.52 573.824 299.666C568.519 296.948 562.806 294.23 560.902 293.551C558.997 293.007 553.148 290.969 547.98 289.066C541.995 286.891 531.385 284.853 519.416 283.358C503.365 281.455 499.965 280.64 497.924 278.194C496.564 276.699 495.476 274.796 495.476 273.981C495.612 273.165 496.428 271.399 497.516 269.904C499.149 267.729 502.141 266.914 514.247 265.555C522.272 264.739 532.609 263.108 537.098 262.021C541.587 260.798 548.66 258.76 552.74 257.265C556.821 255.77 563.894 252.916 568.383 250.741C572.871 248.703 580.761 244.082 586.065 240.549C591.234 237.015 599.531 229.948 604.428 224.784C609.325 219.619 615.718 211.737 618.846 207.388C621.839 202.903 625.919 195.836 627.824 191.759C629.864 187.682 632.72 180.343 634.353 175.451C635.849 170.558 638.161 161.997 639.249 156.424C640.474 150.852 641.834 138.893 642.242 129.787ZM384.892 287.299C383.803 288.93 382.307 296.405 381.491 303.879C380.675 312.169 378.635 321.139 376.458 326.983C374.554 332.283 371.29 338.942 369.113 341.932C367.073 344.922 362.04 350.494 357.96 354.164C354.015 357.969 346.67 362.861 341.909 365.172C337.013 367.618 329.667 370.472 325.587 371.559C321.506 372.782 314.433 374.141 309.945 374.549C304.504 375.093 301.239 376.044 300.015 377.675C299.063 378.898 298.383 380.801 298.383 381.752C298.383 382.567 299.471 384.47 300.695 385.829C302.463 387.596 306.272 388.547 313.617 389.227C319.466 389.77 326.267 390.993 328.579 392.08C331.028 393.168 335.788 395.07 339.189 396.429C342.589 397.924 348.71 401.322 352.791 404.04C357.144 406.894 362.992 412.602 366.665 417.63C370.065 422.387 374.418 430.133 376.322 435.026C378.091 439.918 380.403 449.703 381.219 456.77C382.035 463.837 382.987 471.176 383.395 473.079C383.803 475.117 385.572 477.292 387.748 478.243C391.285 479.874 391.829 479.874 394.413 476.884C396.589 474.438 397.269 471.176 397.95 460.847C398.494 453.101 400.126 444.675 401.758 439.783C403.39 435.298 405.975 429.182 407.471 426.192C409.103 423.202 414.408 416.679 419.305 411.786C424.609 406.486 431.274 401.458 435.763 399.419C439.844 397.381 446.917 394.663 451.405 393.168C455.894 391.673 463.783 389.906 468.952 389.227C476.433 388.411 478.746 387.46 480.514 385.014C482.282 382.431 482.418 381.344 480.922 378.49C479.562 375.772 477.929 375.093 471.4 374.549C467.184 374.141 460.247 372.782 456.166 371.695C452.086 370.472 445.557 368.297 441.884 366.803C438.076 365.172 433.587 362.997 431.683 361.774C429.778 360.687 425.698 357.561 422.433 354.843C419.305 352.261 414.408 346.689 411.552 342.612C408.831 338.535 404.887 330.245 402.846 324.265C400.534 317.606 398.766 308.908 398.222 301.841C397.814 295.453 396.589 288.93 395.501 287.299C394.413 285.397 392.237 284.173 390.196 284.173C388.156 284.173 386.116 285.397 384.892 287.299ZM301.785 512.354C319.739 511.539 362.314 510.451 396.319 509.908C430.324 509.364 487.588 508.82 523.497 508.685C559.407 508.549 624.56 509.092 668.359 509.772C712.157 510.451 761.397 511.674 777.855 512.49C794.314 513.169 828.863 514.664 854.707 515.887C880.55 516.975 913.875 518.877 928.837 519.965C943.8 521.052 972.228 523.498 992.087 525.401C1011.95 527.439 1034.53 530.157 1042.41 531.516C1050.3 533.011 1059.42 534.778 1062.82 535.457C1066.22 536.137 1071.52 537.632 1074.65 538.855C1078.87 540.486 1080.5 541.845 1080.5 543.748C1080.5 545.243 1079.14 547.145 1077.37 547.825C1075.74 548.64 1068.94 550.679 1062.14 552.581C1055.06 554.484 1049.22 556.93 1048.13 558.289C1047.04 559.92 1046.49 565.492 1046.49 574.326C1046.49 582.616 1045.68 590.498 1044.45 594.711C1043.23 598.381 1040.92 603.953 1039.15 606.943C1037.38 609.932 1034.25 613.874 1028.68 619.174L1024.32 616.592C1021.88 615.097 1014.8 612.243 1008.41 610.068C1002.02 607.894 992.495 605.312 987.326 604.224C982.021 603.137 965.563 600.419 950.601 598.245C935.638 596.07 912.107 593.216 898.233 592.129C884.359 590.906 859.331 589.003 842.465 587.916C825.598 586.829 801.387 585.334 788.737 584.654C775.951 583.839 740.45 582.48 709.845 581.665C679.241 580.849 604.838 580.17 544.581 580.17C484.324 580.17 409.105 580.849 377.276 581.665C345.447 582.616 303.825 584.111 284.782 585.198C278.241 585.618 271.01 586.07 263.883 586.516C250.26 587.368 237.017 588.196 229.694 588.732C219.692 589.334 202.537 590.682 189.106 591.738L188.734 591.767C187.138 591.893 185.596 592.014 184.127 592.129C170.253 593.216 146.722 595.934 131.759 598.245C116.797 600.419 101.155 602.865 97.0743 603.681C92.9937 604.496 84.4244 606.671 78.0315 608.573C71.6385 610.476 63.0693 613.602 51.5076 618.766L47.699 614.825C45.6587 612.786 41.9861 606.807 39.6738 601.506C35.5932 592.809 35.1851 590.498 34.505 574.734C34.097 565.356 33.5529 557.202 33.1448 556.93C32.7368 556.522 26.3438 554.62 18.8627 552.581C11.3816 550.543 4.17254 548.368 2.81234 547.689C1.58816 547.009 0.5 545.514 0.5 544.427C0.5 543.34 1.8602 541.437 3.49244 540.35C5.2607 539.263 13.2859 536.952 21.5831 535.05C29.7443 533.147 40.4899 530.973 45.3866 530.293C50.2834 529.478 72.5907 527.031 95.034 524.857C117.477 522.547 151.482 519.829 170.525 518.741C189.568 517.518 219.628 516.023 237.175 515.208C251.517 514.653 273.582 513.643 290.968 512.848L290.985 512.847L291.031 512.845L291.034 512.845L291.049 512.844L291.067 512.843L291.124 512.841C294.951 512.665 298.549 512.501 301.785 512.354ZM326.268 605.448C353.2 604.36 406.384 602.865 444.606 602.322C482.691 601.778 514.928 601.235 516.016 601.099C517.104 600.963 515.472 602.322 512.344 603.953C509.215 605.583 503.094 609.932 498.878 613.738C493.845 618.087 489.9 622.979 487.86 627.328C486.228 630.997 484.46 636.841 483.916 640.239C483.508 644.044 483.916 649.888 485.276 655.46C486.5 660.624 487.452 664.973 487.452 665.381C487.452 665.789 485.548 666.06 483.372 666.06C480.923 666.06 477.659 664.565 474.802 662.255C472.49 660.217 468.817 657.227 466.913 655.732C465.009 654.373 458.888 649.344 453.311 644.724C447.734 640.103 439.301 633.715 434.404 630.59C429.508 627.464 421.346 622.979 416.042 620.533C410.737 618.087 402.303 615.097 396.999 613.738C389.79 611.971 384.077 611.563 373.195 612.107C364.898 612.515 356.329 613.738 352.792 614.961C349.392 616.184 344.359 618.902 336.334 624.61L325.86 619.582C320.147 616.728 311.442 613.738 306.545 612.922C301.649 612.107 293.759 611.971 288.863 612.379C283.966 612.922 276.621 614.689 272.54 616.184C268.324 617.815 262.611 621.484 259.482 624.474C255.402 628.415 253.089 632.221 251.593 637.521C250.097 642.413 249.553 647.578 250.777 659.265L241.528 658.586C236.495 658.178 219.9 657.227 204.53 656.547C189.16 655.732 165.9 654.101 152.843 653.014C139.785 651.927 123.462 650.16 116.797 649.073C114.176 648.653 111.069 648.174 107.921 647.688L107.871 647.68L107.821 647.672L107.786 647.667L107.76 647.663C102.794 646.897 97.7442 646.117 94.3539 645.539C88.7771 644.724 81.704 643.093 78.7116 642.005C75.7191 640.918 72.1826 639.016 70.8224 637.792C69.4622 636.569 68.3741 634.667 68.5101 633.715C68.5101 632.9 71.7746 630.861 75.5831 629.502C79.5277 628.143 91.3615 625.697 101.835 624.066C112.309 622.436 125.094 620.533 130.399 619.853C135.568 619.038 149.034 617.543 160.324 616.456C171.477 615.369 194.465 613.602 211.331 612.379C222.776 611.641 236.412 610.653 247.056 609.882L247.073 609.88L247.083 609.88C252.114 609.515 256.476 609.199 259.618 608.981C269.276 608.302 299.336 606.671 326.268 605.448ZM552.742 603.953C556.822 605.448 563.215 608.573 567.024 610.884C570.696 613.058 578.042 618.087 583.346 621.892C588.651 625.833 601.573 637.249 612.183 647.442L631.633 666.06L707.125 664.43C717.598 652.47 723.719 646.083 727.392 642.413C731.2 638.744 737.321 633.444 741.13 630.726C744.802 628.008 752.827 623.251 758.812 620.261C764.797 617.271 774.863 613.058 781.256 610.884L792.817 606.943C773.775 605.583 737.049 604.496 698.963 603.681C660.878 602.865 610.55 601.914 587.427 601.642L545.261 601.099L552.742 603.953ZM859.059 626.784C857.291 622.164 854.298 617.543 851.306 614.825L846.409 610.476H853.618C857.563 610.476 869.397 611.02 879.87 611.835C890.344 612.651 908.979 614.145 921.356 615.233C933.734 616.32 955.089 619.174 968.963 621.484C985.694 624.202 996.576 626.648 1001.2 628.823C1005.28 630.726 1008.41 633.036 1008.41 634.259C1008.41 635.346 1005.82 637.385 1002.56 638.88C999.432 640.375 992.223 642.413 986.646 643.5C981.069 644.724 971.82 646.219 966.243 646.898C962.024 647.515 954.691 648.521 947.955 649.445L947.852 649.459C945.72 649.751 943.65 650.035 941.759 650.296C933.87 651.519 915.508 653.421 900.953 654.509C886.399 655.732 871.165 656.683 867.22 656.683C860.555 656.683 860.147 656.411 861.099 653.557C861.508 651.926 861.916 646.898 861.916 642.413C861.78 637.657 860.555 630.997 859.059 626.784ZM521.457 623.387C520.233 623.794 517.241 625.018 514.656 626.105C511.8 627.192 508.671 630.046 506.767 633.172C505.135 635.89 503.775 640.375 503.775 642.957C503.775 645.539 505.407 651.383 507.583 655.868C509.623 660.352 514.248 667.691 517.649 672.176C521.049 676.661 532.883 689.572 544.036 700.716C555.19 711.996 569.472 725.858 575.865 731.566C582.122 737.274 586.883 742.438 586.203 743.117C585.659 743.661 580.354 742.574 574.369 740.535C568.384 738.361 558.183 734.012 551.654 730.75C545.125 727.489 535.467 722.46 530.298 719.47C528.058 718.207 525.453 716.726 522.915 715.283L522.908 715.279L522.866 715.255C519.412 713.291 516.087 711.401 513.976 710.229C510.167 708.19 504.999 705.065 502.414 703.434C500.659 702.381 496.75 699.97 492.297 697.223L492.289 697.218C489.845 695.711 487.237 694.102 484.732 692.562C477.523 688.213 469.361 682.641 466.369 680.466C463.377 678.156 455.351 671.632 448.686 666.06C441.885 660.352 433.316 653.557 429.644 650.839C425.835 648.257 418.218 643.772 412.641 640.918C406.928 638.064 399.311 634.939 395.639 633.987C391.83 632.9 383.261 632.085 376.596 632.085C369.795 632.085 361.906 632.764 358.913 633.715C355.921 634.531 351.976 636.705 350.344 638.472C348.031 640.782 347.351 643.229 347.351 648.121C347.351 653.15 348.303 656.004 352.112 661.711C354.696 665.517 360.273 672.312 364.626 676.525C368.979 680.738 381.628 690.115 392.918 697.454C404.072 704.793 415.77 712.539 418.762 714.714C419.582 715.309 420.677 716.109 421.944 717.034L422.024 717.093L422.04 717.104C425.39 719.55 429.909 722.849 433.724 725.586C438.893 729.391 446.238 736.322 450.047 740.943L451.155 742.297C454.746 746.683 459.449 752.428 462.152 755.62C465.009 759.018 470.314 764.182 473.714 766.901C475.185 768.135 477.929 770.387 481.295 773.15L481.312 773.164L481.339 773.186C485.748 776.804 491.216 781.292 496.293 785.519C505.271 792.858 515.608 802.099 519.417 805.905C523.089 809.71 525.538 812.836 524.858 812.836C524.042 812.836 518.601 810.389 512.616 807.264C506.631 804.138 500.782 800.876 499.694 799.925C498.47 798.974 489.492 794.217 479.563 789.189C464.873 781.85 460.112 778.724 453.719 772.201C450.949 769.347 447.574 765.778 444.714 762.753L444.71 762.75C443.077 761.023 441.613 759.474 440.525 758.339C437.533 755.077 432.364 750.456 429.236 748.01C426.107 745.564 410.737 735.099 395.23 724.906C379.724 714.578 363.402 703.298 358.913 699.493C354.424 695.823 348.576 690.387 345.855 687.261C343.135 684.271 338.782 678.02 336.062 673.535C333.069 668.778 329.669 660.352 327.9 653.15L324.636 640.918C310.626 633.308 308.722 632.9 297.024 632.9C289.815 632.764 281.79 633.58 278.933 634.531C275.533 635.618 273.084 637.521 271.86 640.239C270.636 642.549 269.82 645.811 269.82 647.714C269.82 649.616 271.044 654.373 272.54 658.314C274.036 662.119 277.845 668.235 280.974 671.632C284.102 675.03 296.48 685.087 308.45 694.056C325.996 707.103 332.933 713.491 345.175 727.081C353.472 736.458 364.898 748.01 370.611 752.902C376.324 757.931 384.077 764.318 388.021 767.308C391.83 770.298 397.679 774.919 400.807 777.501C402.539 778.871 406.222 781.884 410.7 785.549L410.723 785.567L410.73 785.573C414.688 788.811 419.263 792.555 423.659 796.12C432.908 803.594 441.885 811.341 443.654 813.108C445.422 814.874 446.238 816.777 445.694 817.456C445.014 818 440.525 817.185 435.764 815.69C430.868 814.059 423.251 810.389 418.762 807.4C414.273 804.546 408.969 801.012 407.2 799.517C405.296 798.158 400.807 795.304 397.271 793.402C393.734 791.363 390.742 790.14 390.742 790.819C390.742 791.363 392.51 794.489 394.822 797.886C396.999 801.284 402.304 808.079 406.656 813.108C411.009 818.136 421.346 829.28 429.644 838.114C437.805 846.812 448.822 858.363 454.127 863.664C459.432 868.964 469.906 877.254 477.251 882.01C484.732 886.903 492.893 892.203 495.613 893.834C498.198 895.601 503.366 898.319 507.175 899.95C510.848 901.716 516.969 905.114 520.777 907.832C524.45 910.414 533.971 918.432 541.86 925.499C552.062 934.741 558.863 939.633 565.664 942.759C570.832 945.205 580.354 950.641 586.747 954.854C593.004 959.067 602.525 964.64 607.83 967.222C615.991 971.435 619.12 972.114 629.593 972.794C637.754 973.337 645.916 972.794 654.349 971.299C661.286 970.076 672.031 967.358 678.152 965.047C684.273 962.873 692.435 958.796 696.243 956.214C699.916 953.495 706.037 948.467 709.709 944.934C713.382 941.4 720.319 933.925 725.351 928.218C730.248 922.51 736.233 915.171 738.545 911.909C740.994 908.647 744.802 901.716 747.115 896.416C749.427 891.252 752.011 882.962 752.827 878.069C753.643 873.177 754.052 865.022 753.644 859.722C753.235 853.199 751.739 847.763 749.019 842.055C745.346 834.308 745.21 833.085 745.21 814.874C745.21 796.663 745.346 795.168 750.379 779.539C753.235 770.57 758.54 757.115 762.077 749.641C765.749 742.166 770.782 732.653 773.23 728.576C775.815 724.499 780.984 716.48 784.792 710.908C788.601 705.336 794.314 698.541 797.714 695.959C800.979 693.241 806.283 689.436 809.412 687.397C812.54 685.359 819.341 680.194 824.374 675.845C830.495 670.545 834.848 665.517 837.296 660.624C840.288 654.645 841.104 651.383 841.104 644.044C841.104 638.88 840.152 633.172 839.2 631.133C838.112 628.823 835.12 626.377 831.719 625.018C828.591 623.659 823.286 622.571 820.021 622.571C816.621 622.571 809.412 623.523 803.971 624.61C798.53 625.697 788.601 628.823 781.936 631.405C775.135 634.123 765.341 638.744 760.173 641.87C754.868 644.995 747.251 650.296 743.17 653.829C738.953 657.363 730.112 667.827 723.447 677.069C716.646 686.31 708.757 696.503 705.764 699.764C702.092 703.706 697.739 706.56 692.843 708.462C686.858 710.637 683.321 711.044 675.84 710.501C670.535 710.093 661.694 708.19 656.117 706.152C650.404 704.249 642.243 700.444 637.754 697.59C632.994 694.736 619.392 682.641 605.79 669.186C592.596 656.411 577.906 642.957 573.009 639.287C568.112 635.754 559.951 630.59 554.782 628.008C546.621 623.93 543.9 623.251 534.379 622.979C528.394 622.843 522.545 622.979 521.457 623.387Z" fill="url(#paint0_linear_754_1993)"/>
<defs>
<linearGradient id="paint0_linear_754_1993" x1="131.391" y1="831.818" x2="671.561" y2="711.982" gradientUnits="userSpaceOnUse">
<stop stop-color="#439DDF"/>
<stop offset="0.524208" stop-color="#4F87ED"/>
<stop offset="0.781452" stop-color="#9476C5"/>
<stop offset="0.888252" stop-color="#BC688E"/>
<stop offset="1" stop-color="#D6645D"/>
</linearGradient>
</defs>
</svg>
