<svg width="768" height="692" viewBox="0 0 768 692" fill="none" xmlns="http://www.w3.org/2000/svg">
<path d="M582.771 442.774C585.092 442.774 588.864 443.548 591.089 444.515C593.507 445.481 595.635 447.221 596.409 448.864C597.086 450.314 597.764 454.373 597.764 458.046C597.764 463.265 597.183 465.585 595.055 469.838C593.314 473.317 590.219 476.894 585.866 480.663C582.288 483.756 577.451 487.429 575.227 488.879C573.002 490.329 569.23 493.035 566.908 494.968C564.49 496.804 560.427 501.637 557.719 505.6C555.01 509.562 551.335 515.265 549.497 518.165C547.756 521.065 544.177 527.83 541.565 533.146C539.051 538.462 535.278 548.031 533.247 554.41C529.668 565.525 529.572 566.589 529.572 579.541C529.572 592.492 529.669 593.363 532.28 598.872C534.215 602.931 535.278 606.797 535.568 611.437C535.859 615.206 535.569 621.006 534.988 624.485C534.408 627.965 532.57 633.86 530.926 637.533C529.281 641.303 526.573 646.232 524.832 648.552C523.188 650.871 518.932 656.091 515.45 660.15C511.871 664.21 506.938 669.526 504.326 672.039C501.715 674.552 497.363 678.128 494.751 680.062C492.043 681.898 486.238 684.797 481.886 686.344C477.533 687.987 469.892 689.92 464.959 690.79C458.962 691.853 453.159 692.24 447.355 691.854C439.908 691.37 437.682 690.887 431.879 687.891C428.107 686.054 421.336 682.091 416.887 679.095C412.341 676.099 405.57 672.233 401.895 670.493C397.058 668.27 392.221 664.79 384.967 658.218C379.357 653.192 372.586 647.489 369.975 645.652C367.266 643.719 362.914 641.303 360.303 640.047C357.595 638.887 353.919 636.954 352.081 635.697C350.147 634.537 344.342 630.768 339.022 627.288C333.799 623.905 326.351 618.009 322.579 614.239C318.807 610.47 310.972 602.254 305.169 596.068C299.269 589.786 291.917 581.86 288.822 578.284C285.727 574.708 281.955 569.875 280.407 567.459C278.763 565.043 277.505 562.819 277.505 562.433C277.506 561.95 279.634 562.82 282.148 564.27C284.663 565.623 287.855 567.653 289.209 568.619C290.467 569.682 294.239 572.195 297.431 574.225C300.623 576.351 306.039 578.961 309.521 580.121C312.907 581.184 316.098 581.763 316.582 581.377C316.969 580.894 316.389 579.541 315.132 578.284C313.874 577.028 307.49 571.518 300.913 566.202C294.239 560.79 286.985 554.798 284.663 552.961C282.438 551.125 278.279 547.838 275.57 545.712C272.765 543.585 267.252 539.042 263.189 535.466C259.127 531.986 251.003 523.77 245.103 517.102C236.397 507.436 231.464 502.894 218.986 493.615C210.475 487.236 201.673 480.084 199.448 477.667C197.224 475.251 194.515 470.901 193.451 468.194C192.387 465.391 191.517 462.008 191.517 460.655C191.517 459.302 192.096 456.983 192.967 455.34C193.837 453.407 195.579 452.054 197.997 451.28C200.028 450.604 205.735 450.023 210.861 450.12C219.18 450.12 220.534 450.411 230.497 455.823L232.818 464.521C234.076 469.644 236.494 475.637 238.622 479.02C240.557 482.209 243.651 486.656 245.586 488.782C247.52 491.005 251.679 494.872 254.871 497.481C258.063 500.188 269.671 508.21 280.697 515.556C291.724 522.805 302.654 530.247 304.879 531.986C307.104 533.726 310.779 537.012 312.907 539.332C315.035 541.555 319.194 546.002 322.289 549.191C326.835 553.831 330.221 556.054 340.667 561.273C347.728 564.85 354.112 568.233 354.982 568.909C355.757 569.586 359.916 571.905 364.171 574.128C368.427 576.351 372.297 578.091 372.877 578.091C373.359 578.09 371.619 575.867 369.008 573.161C366.299 570.455 358.948 563.882 352.564 558.663C346.181 553.347 338.926 547.452 336.508 545.422C334.09 543.489 330.317 539.816 328.286 537.399C326.364 535.13 323.023 531.047 320.47 527.928L319.678 526.961C316.969 523.675 311.746 518.745 308.07 516.039C304.298 513.333 299.559 509.853 297.431 508.307C295.303 506.76 286.984 501.251 279.053 496.031C271.025 490.812 262.029 484.143 258.934 481.146C255.838 478.15 251.873 473.318 250.035 470.611C247.327 466.552 246.649 464.522 246.649 460.945C246.649 457.466 247.134 455.726 248.778 454.083C249.939 452.827 252.743 451.28 254.871 450.7C256.999 450.024 262.61 449.54 267.446 449.54C272.186 449.54 278.279 450.12 280.987 450.894C283.599 451.57 289.016 453.794 293.078 455.823C297.044 457.853 302.461 461.042 305.169 462.879C307.781 464.812 313.874 469.645 318.71 473.704C323.449 477.667 329.156 482.306 331.284 483.949C333.412 485.496 339.216 489.459 344.343 492.552C349.372 495.645 354.983 499.124 356.917 500.284C358.755 501.444 362.43 503.667 365.139 505.117C367.75 506.567 372.973 509.563 376.745 511.689C380.421 513.816 387.289 517.392 391.932 519.712C396.574 522.032 403.829 525.124 408.085 526.671C412.341 528.121 416.113 528.893 416.5 528.507C416.982 528.022 413.597 524.35 409.148 520.291C404.602 516.231 394.446 506.373 386.515 498.351C378.583 490.425 370.168 481.243 367.75 478.054C365.332 474.864 362.044 469.645 360.593 466.455C359.045 463.265 357.884 459.109 357.884 457.272C357.884 455.436 358.851 452.246 360.012 450.313C361.366 448.09 363.591 446.06 365.622 445.287C367.46 444.514 369.587 443.645 370.458 443.354C371.232 443.065 375.392 442.968 379.647 443.064C386.418 443.258 388.353 443.741 394.156 446.641C397.832 448.477 403.635 452.15 407.117 454.663C410.599 457.273 421.045 466.841 430.428 475.927C440.1 485.495 449.773 494.098 453.158 496.128C456.35 498.158 462.154 500.864 466.217 502.217C470.183 503.667 476.47 505.021 480.242 505.311C485.562 505.697 488.076 505.407 492.332 503.86C495.814 502.507 498.91 500.478 501.521 497.675C503.649 495.355 509.259 488.106 514.096 481.533C518.835 474.961 525.123 467.518 528.121 465.005C531.023 462.492 536.44 458.722 540.212 456.499C543.888 454.276 550.851 450.99 555.688 449.057C560.427 447.22 567.488 444.998 571.357 444.225C575.226 443.451 580.352 442.774 582.771 442.774ZM366.59 427.503C367.363 427.407 366.202 428.374 363.978 429.533C361.753 430.693 357.401 433.786 354.402 436.492C350.824 439.585 348.018 443.064 346.567 446.157C345.407 448.767 344.15 452.923 343.763 455.34C343.473 458.046 343.762 462.202 344.729 466.165C345.6 469.838 346.277 472.93 346.277 473.221C346.277 473.511 344.923 473.704 343.375 473.704C341.634 473.704 339.312 472.641 337.281 470.998C335.637 469.548 333.026 467.422 331.672 466.358C330.318 465.392 325.965 461.816 321.999 458.529C318.033 455.243 312.036 450.701 308.554 448.478C305.072 446.255 299.268 443.065 295.496 441.325C291.724 439.585 285.727 437.459 281.955 436.492C276.829 435.236 272.765 434.945 265.027 435.332C259.127 435.622 253.033 436.492 250.519 437.362C248.1 438.232 244.522 440.165 238.815 444.225L231.367 440.648C227.305 438.619 221.114 436.492 217.632 435.912C214.15 435.332 208.54 435.235 205.058 435.525C201.576 435.912 196.353 437.168 193.451 438.231C190.453 439.391 186.39 442.002 184.165 444.128C181.263 446.931 179.619 449.637 178.555 453.406C177.491 456.886 177.104 460.559 177.975 468.871L171.397 468.388C167.819 468.098 156.018 467.422 145.088 466.938C134.158 466.359 117.618 465.198 108.332 464.425C99.0465 463.652 87.4397 462.395 82.7002 461.622C77.8639 460.849 70.706 459.786 66.7402 459.109C62.7745 458.529 57.7451 457.369 55.6172 456.596C53.4892 455.822 50.9741 454.469 50.0068 453.6C49.0397 452.73 48.2656 451.377 48.3623 450.7C48.3624 450.12 50.6843 448.671 53.3926 447.704C56.1977 446.738 64.6128 444.998 72.0605 443.838C79.5084 442.678 88.6008 441.325 92.373 440.842C96.0488 440.262 105.624 439.198 113.652 438.425C121.584 437.652 137.931 436.395 149.925 435.525C161.919 434.752 177.297 433.593 184.262 433.109C191.129 432.626 212.506 431.466 231.657 430.596C250.809 429.822 288.629 428.76 315.809 428.373C342.892 427.986 365.816 427.6 366.59 427.503ZM417.37 427.89C433.813 428.083 469.602 428.76 496.686 429.34C523.769 429.92 549.884 430.693 563.426 431.659L555.204 434.462C550.658 436.008 543.5 439.005 539.244 441.132C534.988 443.258 529.281 446.641 526.67 448.574C523.962 450.507 519.609 454.276 516.9 456.886C514.289 459.495 509.936 464.038 502.488 472.544L448.806 473.704L434.975 460.462C427.43 453.213 418.241 445.094 414.469 442.291C410.696 439.585 405.473 436.008 402.861 434.462C400.153 432.819 395.607 430.596 392.705 429.533L387.386 427.503L417.37 427.89ZM606.662 434.172C609.467 434.172 617.882 434.559 625.33 435.139C632.778 435.719 646.029 436.782 654.831 437.556C663.633 438.329 678.82 440.358 688.686 442.001C700.583 443.934 708.321 445.674 711.609 447.221C714.511 448.574 716.735 450.217 716.735 451.087C716.735 451.86 714.898 453.31 712.576 454.373C710.352 455.436 705.225 456.886 701.26 457.659C697.294 458.529 690.717 459.593 686.751 460.076C682.785 460.656 674.95 461.719 669.34 462.492C663.73 463.362 650.672 464.715 640.322 465.488C629.973 466.358 619.141 467.035 616.335 467.035C611.595 467.035 611.304 466.841 611.981 464.812C612.272 463.652 612.562 460.075 612.562 456.886C612.466 453.503 611.595 448.767 610.531 445.771C609.274 442.484 607.145 439.199 605.018 437.266L601.535 434.172H606.662ZM371.909 361.778C397.445 361.682 443.776 362.068 474.922 362.552C506.067 363.035 541.082 363.904 552.786 364.484C564.49 364.968 589.058 366.031 607.436 366.9C625.813 367.674 649.512 369.028 660.151 369.801C670.791 370.574 691.007 372.314 705.129 373.667C719.251 375.117 735.307 377.049 740.917 378.016C746.527 379.079 753.008 380.336 755.426 380.819C757.844 381.303 761.616 382.365 763.841 383.235C766.839 384.395 768 385.362 768 386.715C768 387.778 767.033 389.131 765.775 389.614C764.615 390.194 759.779 391.644 754.942 392.997C749.913 394.35 745.754 396.09 744.979 397.057C744.206 398.216 743.818 402.18 743.818 408.462C743.818 414.358 743.239 419.964 742.368 422.96C741.498 425.57 739.853 429.533 738.596 431.659C737.338 433.786 735.113 436.589 731.147 440.358L728.053 438.521C726.312 437.458 721.281 435.429 716.735 433.883C712.189 432.336 705.419 430.5 701.743 429.727C697.971 428.953 686.267 427.02 675.627 425.474C664.987 423.927 648.254 421.897 638.388 421.124C628.522 420.254 610.724 418.901 598.73 418.128C586.737 417.355 569.52 416.291 560.524 415.808C551.432 415.228 526.186 414.262 504.423 413.682C482.659 413.102 429.751 412.618 386.901 412.618C344.052 412.618 290.563 413.102 267.93 413.682C245.296 414.358 215.698 415.421 202.156 416.194C188.615 417.064 170.914 418.128 162.982 418.708C154.954 419.191 140.445 420.351 130.579 421.124C120.713 421.897 103.98 423.831 93.3398 425.474C82.7001 427.02 71.5765 428.76 68.6748 429.34C65.773 429.92 59.6797 431.466 55.1338 432.819C50.5877 434.172 44.494 436.396 36.2725 440.068L33.5635 437.266C32.1126 435.816 29.5008 431.562 27.8564 427.793C24.9548 421.607 24.6653 419.964 24.1816 408.752C23.8915 402.083 23.504 396.285 23.2139 396.091C22.9237 395.801 18.3775 394.447 13.0576 392.997C7.73793 391.547 2.61186 390.001 1.64453 389.518C0.774025 389.034 4.0718e-05 387.971 0 387.198C0 386.425 0.967289 385.072 2.12793 384.299C3.38534 383.526 9.09204 381.882 14.9922 380.529C20.7954 379.176 28.4366 377.63 31.9189 377.146C35.4011 376.567 51.2649 374.827 67.2246 373.28C83.1843 371.637 107.366 369.704 120.907 368.931C134.449 368.061 155.825 366.997 168.303 366.417C180.78 365.934 201.479 364.968 214.247 364.388C227.015 363.808 257.29 363.034 281.471 362.647C305.652 362.261 346.374 361.875 371.909 361.778ZM277.118 202.104C278.569 202.105 280.116 202.975 280.89 204.328C281.663 205.488 282.534 210.127 282.824 214.67C283.211 219.696 284.469 225.882 286.113 230.618C287.564 234.871 290.369 240.766 292.304 243.666C294.335 246.566 297.817 250.529 300.042 252.365C302.363 254.298 305.265 256.521 306.619 257.294C307.973 258.164 311.165 259.711 313.873 260.871C316.485 261.934 321.128 263.481 324.029 264.351C326.931 265.124 331.865 266.09 334.863 266.38C339.506 266.766 340.667 267.25 341.634 269.183C342.698 271.212 342.601 271.986 341.344 273.822C340.086 275.562 338.442 276.238 333.122 276.818C329.447 277.302 323.836 278.559 320.645 279.622C317.453 280.685 312.422 282.618 309.521 284.067C306.329 285.517 301.59 289.094 297.817 292.863C294.335 296.343 290.563 300.982 289.402 303.108C288.338 305.235 286.501 309.585 285.34 312.774C284.179 316.254 283.018 322.247 282.631 327.756C282.147 335.101 281.664 337.421 280.116 339.161C278.279 341.287 277.892 341.287 275.377 340.127C273.829 339.45 272.571 337.904 272.281 336.454C271.991 335.1 271.315 329.881 270.734 324.855C270.154 319.83 268.509 312.871 267.252 309.392C265.898 305.912 262.803 300.402 260.385 297.02C257.773 293.443 253.614 289.383 250.519 287.354C247.617 285.42 243.264 283.005 240.846 281.941C238.428 280.975 235.042 279.622 233.301 278.849C231.656 278.075 226.82 277.205 222.661 276.818C217.438 276.335 214.73 275.659 213.473 274.402C212.602 273.436 211.828 272.083 211.828 271.503C211.828 270.826 212.312 269.472 212.989 268.603C213.86 267.443 216.181 266.766 220.05 266.38C223.242 266.09 228.271 265.124 231.173 264.254C234.075 263.481 239.298 261.451 242.78 259.711C246.166 258.068 251.389 254.588 254.194 251.882C257.096 249.272 260.674 245.309 262.125 243.183C263.673 241.056 265.994 236.32 267.349 232.551C268.896 228.395 270.347 222.015 270.928 216.119C271.508 210.804 272.572 205.488 273.346 204.328C274.216 202.975 275.667 202.104 277.118 202.104ZM462.25 77.4199C463.604 77.3233 465.249 77.9035 465.926 78.5801C466.506 79.2567 467.183 83.3165 467.474 87.5693C467.667 91.8221 468.344 99.1674 469.021 104C469.699 108.833 471.246 116.179 472.503 120.432C473.76 124.684 476.953 132.513 479.758 137.829C482.466 143.145 485.174 148.364 485.852 149.428C486.529 150.588 488.946 153.777 491.364 156.58C493.782 159.383 499.587 164.603 504.423 168.275C509.259 171.852 516.126 176.202 519.898 177.941C523.574 179.681 529.087 182 531.989 182.967C534.891 184.03 539.92 185.576 543.112 186.35C546.304 187.123 553.269 188.283 558.589 188.863C563.909 189.54 569.229 190.603 570.39 191.183C571.937 192.053 572.614 193.309 572.614 195.339C572.614 197.465 572.034 198.529 570.39 199.205C569.229 199.688 562.555 200.751 555.688 201.621C548.723 202.491 540.695 204.037 537.793 205.004C534.891 205.97 530.538 207.614 528.12 208.677C525.702 209.643 521.156 211.77 517.964 213.316C514.772 214.766 509.549 218.052 506.357 220.469C503.165 222.885 498.135 227.235 495.233 230.135C492.235 233.034 488.269 237.867 486.335 240.767C484.4 243.666 481.015 249.755 478.887 254.298C476.759 258.841 473.954 266.187 472.696 270.729C471.342 275.272 469.795 283.681 469.118 289.577C468.538 295.473 467.764 302.722 467.377 305.719C466.893 309.971 466.216 311.518 464.571 312.484C462.831 313.547 462.056 313.451 460.219 312.194C458.188 310.745 457.898 309.681 457.221 298.662C456.834 292.09 455.867 283.681 454.996 279.911C454.222 276.142 452.868 270.73 451.997 267.83C451.127 264.93 449.385 259.904 448.031 256.715C446.774 253.525 442.905 246.759 439.52 241.733C436.037 236.417 430.911 230.327 427.332 227.234C423.947 224.238 419.691 220.663 417.854 219.31C416.016 217.86 411.373 215.153 407.697 213.123C403.925 211.19 399.862 209.257 398.508 208.773C397.153 208.387 392.994 206.937 389.319 205.584C385.063 204.038 377.519 202.588 369.007 201.524C357.593 200.171 355.175 199.591 353.725 197.852C352.757 196.788 351.983 195.435 351.983 194.855C352.08 194.275 352.661 193.019 353.435 191.956C354.595 190.41 356.723 189.83 365.331 188.863C371.038 188.283 378.389 187.123 381.581 186.35C384.773 185.48 389.803 184.03 392.705 182.967C395.607 181.904 400.636 179.875 403.828 178.328C407.02 176.878 412.63 173.591 416.402 171.078C420.078 168.565 425.978 163.539 429.46 159.866C432.942 156.193 437.488 150.588 439.713 147.495C441.841 144.306 444.743 139.28 446.098 136.38C447.549 133.48 449.58 128.261 450.74 124.781C451.804 121.302 453.448 115.212 454.222 111.249C455.092 107.286 456.059 98.7804 456.35 92.3047C456.833 84.7665 457.51 80.0305 458.381 79.0635C459.058 78.097 460.799 77.42 462.25 77.4199ZM328.188 0C329.349 0 331.09 0.773689 332.058 1.74023C333.315 2.9001 333.799 4.83315 333.702 8.69922C333.702 11.599 334.573 17.6879 335.733 22.2305C336.797 26.7732 338.828 32.573 340.183 35.2793C341.537 37.8887 343.664 41.6576 344.922 43.4941C346.179 45.3306 350.146 49.1003 353.725 51.8066C357.303 54.513 361.85 57.509 363.688 58.4756C365.526 59.4422 372.683 61.2795 392.221 65.2422L392.512 68.625C392.608 70.4612 392.221 72.5869 391.544 73.2637C390.867 73.8436 387.481 74.7139 383.999 75.0039C380.517 75.2939 375.101 76.4535 371.909 77.5166C368.717 78.5798 363.3 80.8032 359.915 82.543C355.756 84.5727 351.983 87.376 348.501 91.3389C345.599 94.5285 341.827 99.748 340.183 102.938C338.538 106.127 336.604 111.153 335.83 114.053C335.056 116.953 334.186 123.235 333.799 127.874C333.412 133.866 332.831 136.572 331.768 137.249C330.994 137.732 329.349 138.216 328.092 138.216C326.931 138.216 325.384 137.249 324.61 135.993C323.837 134.833 323.063 129.807 322.676 124.685C322.386 119.176 321.418 113.57 320.258 110.67C319.291 107.964 317.162 103.517 315.614 100.617C314.163 97.7175 310.488 92.8849 307.489 89.9854C304.491 86.9891 299.655 83.316 296.85 81.8662C293.948 80.3198 289.208 78.2898 286.307 77.3232C283.405 76.3567 278.181 75.2938 274.699 74.9072C271.217 74.5206 267.445 73.7479 266.188 73.168C264.833 72.3947 263.963 71.1373 263.963 69.5908C263.963 68.2378 264.544 66.6912 265.221 66.0146C265.898 65.3381 268.026 64.5653 269.863 64.2754C271.701 63.8888 276.731 62.9217 280.987 62.1484C285.34 61.2785 291.627 59.1527 295.496 57.2197C299.462 55.19 304.491 51.5166 307.586 48.3271C310.584 45.3309 314.26 40.3047 316.001 36.7285C317.645 33.249 319.677 28.8032 320.548 26.7734C321.418 24.8403 322.386 18.9439 322.676 13.7246C323.063 8.40874 323.837 3.38249 324.61 2.22266V2.12598C325.384 0.966431 326.931 0.000175885 328.188 0Z" fill="black"/>
</svg>
